<svg xmlns="http://www.w3.org/2000/svg" xmlns:xlink="http://www.w3.org/1999/xlink" width="250" zoomAndPan="magnify" viewBox="0 0 187.5 37.5" height="50" preserveAspectRatio="xMidYMid meet" version="1.0"><defs><g/></defs><g fill="#ffd452" fill-opacity="1"><g transform="translate(46.100174, 26.644737)"><g><path d="M 14.65625 0.09375 C 14.4375 0.09375 14.253906 0.00390625 14.109375 -0.171875 L 7.109375 -8.984375 L 8.265625 -10.140625 L 15.328125 -1.203125 C 15.441406 -1.046875 15.5 -0.875 15.5 -0.6875 C 15.5 -0.425781 15.398438 -0.226562 15.203125 -0.09375 C 15.015625 0.03125 14.832031 0.09375 14.65625 0.09375 Z M 14.390625 -17.21875 C 14.585938 -17.21875 14.753906 -17.144531 14.890625 -17 C 15.023438 -16.851562 15.09375 -16.6875 15.09375 -16.5 C 15.09375 -16.300781 15.019531 -16.128906 14.875 -15.984375 L 3.671875 -5.5 L 3.484375 -7.171875 L 13.84375 -16.96875 C 14.007812 -17.132812 14.191406 -17.21875 14.390625 -17.21875 Z M 3.078125 0 C 2.847656 0 2.660156 -0.0703125 2.515625 -0.21875 C 2.378906 -0.363281 2.3125 -0.546875 2.3125 -0.765625 L 2.3125 -16.5 C 2.3125 -16.71875 2.382812 -16.898438 2.53125 -17.046875 C 2.6875 -17.191406 2.878906 -17.265625 3.109375 -17.265625 C 3.316406 -17.265625 3.492188 -17.191406 3.640625 -17.046875 C 3.796875 -16.898438 3.875 -16.71875 3.875 -16.5 L 3.875 -0.765625 C 3.851562 -0.546875 3.769531 -0.363281 3.625 -0.21875 C 3.476562 -0.0703125 3.296875 0 3.078125 0 Z M 3.078125 0 "/></g></g></g><g fill="#ffd452" fill-opacity="1"><g transform="translate(62.750503, 26.644737)"><g><path d="M 12.28125 -12.609375 C 12.5 -12.609375 12.675781 -12.53125 12.8125 -12.375 C 12.957031 -12.226562 13.03125 -12.050781 13.03125 -11.84375 L 13.03125 -0.734375 C 13.03125 -0.535156 12.953125 -0.363281 12.796875 -0.21875 C 12.648438 -0.0703125 12.476562 0 12.28125 0 C 12.070312 0 11.894531 -0.0703125 11.75 -0.21875 C 11.613281 -0.363281 11.546875 -0.535156 11.546875 -0.734375 L 11.546875 -3.671875 L 11.96875 -3.875 C 11.96875 -3.414062 11.835938 -2.945312 11.578125 -2.46875 C 11.328125 -1.988281 10.976562 -1.539062 10.53125 -1.125 C 10.09375 -0.71875 9.570312 -0.382812 8.96875 -0.125 C 8.363281 0.125 7.71875 0.25 7.03125 0.25 C 5.914062 0.25 4.914062 -0.0351562 4.03125 -0.609375 C 3.15625 -1.191406 2.460938 -1.984375 1.953125 -2.984375 C 1.453125 -3.984375 1.203125 -5.109375 1.203125 -6.359375 C 1.203125 -7.648438 1.457031 -8.78125 1.96875 -9.75 C 2.476562 -10.726562 3.171875 -11.5 4.046875 -12.0625 C 4.921875 -12.625 5.90625 -12.90625 7 -12.90625 C 7.707031 -12.90625 8.367188 -12.78125 8.984375 -12.53125 C 9.609375 -12.28125 10.148438 -11.941406 10.609375 -11.515625 C 11.066406 -11.085938 11.421875 -10.597656 11.671875 -10.046875 C 11.929688 -9.503906 12.0625 -8.9375 12.0625 -8.34375 L 11.546875 -8.703125 L 11.546875 -11.84375 C 11.546875 -12.050781 11.613281 -12.226562 11.75 -12.375 C 11.894531 -12.53125 12.070312 -12.609375 12.28125 -12.609375 Z M 7.15625 -1.140625 C 8.03125 -1.140625 8.800781 -1.363281 9.46875 -1.8125 C 10.144531 -2.257812 10.675781 -2.882812 11.0625 -3.6875 C 11.445312 -4.488281 11.640625 -5.378906 11.640625 -6.359375 C 11.640625 -7.335938 11.445312 -8.210938 11.0625 -8.984375 C 10.675781 -9.753906 10.144531 -10.367188 9.46875 -10.828125 C 8.800781 -11.285156 8.03125 -11.515625 7.15625 -11.515625 C 6.300781 -11.515625 5.53125 -11.289062 4.84375 -10.84375 C 4.164062 -10.40625 3.632812 -9.800781 3.25 -9.03125 C 2.863281 -8.257812 2.671875 -7.367188 2.671875 -6.359375 C 2.671875 -5.378906 2.863281 -4.488281 3.25 -3.6875 C 3.632812 -2.882812 4.160156 -2.257812 4.828125 -1.8125 C 5.503906 -1.363281 6.28125 -1.140625 7.15625 -1.140625 Z M 7.15625 -1.140625 "/></g></g></g><g fill="#ffd452" fill-opacity="1"><g transform="translate(77.698797, 26.644737)"><g><path d="M 7.703125 -12.703125 C 8.734375 -12.703125 9.566406 -12.476562 10.203125 -12.03125 C 10.847656 -11.59375 11.320312 -10.992188 11.625 -10.234375 C 11.9375 -9.484375 12.09375 -8.644531 12.09375 -7.71875 L 12.09375 -0.734375 C 12.09375 -0.535156 12.015625 -0.363281 11.859375 -0.21875 C 11.710938 -0.0703125 11.539062 0 11.34375 0 C 11.113281 0 10.929688 -0.0703125 10.796875 -0.21875 C 10.671875 -0.363281 10.609375 -0.535156 10.609375 -0.734375 L 10.609375 -7.71875 C 10.609375 -8.394531 10.503906 -9.003906 10.296875 -9.546875 C 10.085938 -10.085938 9.753906 -10.519531 9.296875 -10.84375 C 8.835938 -11.164062 8.222656 -11.328125 7.453125 -11.328125 C 6.765625 -11.328125 6.109375 -11.164062 5.484375 -10.84375 C 4.867188 -10.519531 4.367188 -10.085938 3.984375 -9.546875 C 3.609375 -9.003906 3.421875 -8.394531 3.421875 -7.71875 L 3.421875 -0.734375 C 3.421875 -0.535156 3.347656 -0.363281 3.203125 -0.21875 C 3.054688 -0.0703125 2.882812 0 2.6875 0 C 2.457031 0 2.273438 -0.0703125 2.140625 -0.21875 C 2.015625 -0.363281 1.953125 -0.535156 1.953125 -0.734375 L 1.953125 -17.515625 C 1.953125 -17.710938 2.019531 -17.882812 2.15625 -18.03125 C 2.300781 -18.175781 2.476562 -18.25 2.6875 -18.25 C 2.90625 -18.25 3.082031 -18.175781 3.21875 -18.03125 C 3.351562 -17.882812 3.421875 -17.710938 3.421875 -17.515625 L 3.421875 -9.515625 L 2.859375 -8.65625 C 2.890625 -9.164062 3.050781 -9.660156 3.34375 -10.140625 C 3.632812 -10.628906 4.007812 -11.066406 4.46875 -11.453125 C 4.925781 -11.847656 5.429688 -12.15625 5.984375 -12.375 C 6.546875 -12.59375 7.117188 -12.703125 7.703125 -12.703125 Z M 7.703125 -12.703125 "/></g></g></g><g fill="#ffd452" fill-opacity="1"><g transform="translate(91.709742, 26.644737)"><g><path d="M 12.28125 -12.609375 C 12.5 -12.609375 12.675781 -12.53125 12.8125 -12.375 C 12.957031 -12.226562 13.03125 -12.050781 13.03125 -11.84375 L 13.03125 -0.734375 C 13.03125 -0.535156 12.953125 -0.363281 12.796875 -0.21875 C 12.648438 -0.0703125 12.476562 0 12.28125 0 C 12.070312 0 11.894531 -0.0703125 11.75 -0.21875 C 11.613281 -0.363281 11.546875 -0.535156 11.546875 -0.734375 L 11.546875 -3.671875 L 11.96875 -3.875 C 11.96875 -3.414062 11.835938 -2.945312 11.578125 -2.46875 C 11.328125 -1.988281 10.976562 -1.539062 10.53125 -1.125 C 10.09375 -0.71875 9.570312 -0.382812 8.96875 -0.125 C 8.363281 0.125 7.71875 0.25 7.03125 0.25 C 5.914062 0.25 4.914062 -0.0351562 4.03125 -0.609375 C 3.15625 -1.191406 2.460938 -1.984375 1.953125 -2.984375 C 1.453125 -3.984375 1.203125 -5.109375 1.203125 -6.359375 C 1.203125 -7.648438 1.457031 -8.78125 1.96875 -9.75 C 2.476562 -10.726562 3.171875 -11.5 4.046875 -12.0625 C 4.921875 -12.625 5.90625 -12.90625 7 -12.90625 C 7.707031 -12.90625 8.367188 -12.78125 8.984375 -12.53125 C 9.609375 -12.28125 10.148438 -11.941406 10.609375 -11.515625 C 11.066406 -11.085938 11.421875 -10.597656 11.671875 -10.046875 C 11.929688 -9.503906 12.0625 -8.9375 12.0625 -8.34375 L 11.546875 -8.703125 L 11.546875 -11.84375 C 11.546875 -12.050781 11.613281 -12.226562 11.75 -12.375 C 11.894531 -12.53125 12.070312 -12.609375 12.28125 -12.609375 Z M 7.15625 -1.140625 C 8.03125 -1.140625 8.800781 -1.363281 9.46875 -1.8125 C 10.144531 -2.257812 10.675781 -2.882812 11.0625 -3.6875 C 11.445312 -4.488281 11.640625 -5.378906 11.640625 -6.359375 C 11.640625 -7.335938 11.445312 -8.210938 11.0625 -8.984375 C 10.675781 -9.753906 10.144531 -10.367188 9.46875 -10.828125 C 8.800781 -11.285156 8.03125 -11.515625 7.15625 -11.515625 C 6.300781 -11.515625 5.53125 -11.289062 4.84375 -10.84375 C 4.164062 -10.40625 3.632812 -9.800781 3.25 -9.03125 C 2.863281 -8.257812 2.671875 -7.367188 2.671875 -6.359375 C 2.671875 -5.378906 2.863281 -4.488281 3.25 -3.6875 C 3.632812 -2.882812 4.160156 -2.257812 4.828125 -1.8125 C 5.503906 -1.363281 6.28125 -1.140625 7.15625 -1.140625 Z M 7.15625 -1.140625 "/></g></g></g><g fill="#ffd452" fill-opacity="1"><g transform="translate(106.658037, 26.644737)"><g><path d="M 1.140625 -12.5625 L 6.890625 -12.5625 C 7.078125 -12.5625 7.238281 -12.488281 7.375 -12.34375 C 7.507812 -12.207031 7.578125 -12.039062 7.578125 -11.84375 C 7.578125 -11.664062 7.507812 -11.507812 7.375 -11.375 C 7.238281 -11.238281 7.078125 -11.171875 6.890625 -11.171875 L 1.140625 -11.171875 C 0.941406 -11.171875 0.769531 -11.238281 0.625 -11.375 C 0.488281 -11.519531 0.421875 -11.679688 0.421875 -11.859375 C 0.421875 -12.054688 0.488281 -12.222656 0.625 -12.359375 C 0.769531 -12.492188 0.941406 -12.5625 1.140625 -12.5625 Z M 3.671875 -16.03125 C 3.890625 -16.03125 4.066406 -15.957031 4.203125 -15.8125 C 4.347656 -15.664062 4.421875 -15.492188 4.421875 -15.296875 L 4.421875 -2.90625 C 4.421875 -2.445312 4.476562 -2.101562 4.59375 -1.875 C 4.71875 -1.644531 4.878906 -1.492188 5.078125 -1.421875 C 5.273438 -1.347656 5.472656 -1.3125 5.671875 -1.3125 C 5.804688 -1.3125 5.925781 -1.332031 6.03125 -1.375 C 6.132812 -1.414062 6.253906 -1.4375 6.390625 -1.4375 C 6.535156 -1.4375 6.660156 -1.375 6.765625 -1.25 C 6.878906 -1.132812 6.9375 -0.988281 6.9375 -0.8125 C 6.9375 -0.582031 6.800781 -0.390625 6.53125 -0.234375 C 6.269531 -0.078125 5.957031 0 5.59375 0 C 5.445312 0 5.222656 -0.0078125 4.921875 -0.03125 C 4.628906 -0.0625 4.328125 -0.15625 4.015625 -0.3125 C 3.703125 -0.46875 3.441406 -0.742188 3.234375 -1.140625 C 3.035156 -1.535156 2.9375 -2.101562 2.9375 -2.84375 L 2.9375 -15.296875 C 2.9375 -15.492188 3.003906 -15.664062 3.140625 -15.8125 C 3.285156 -15.957031 3.460938 -16.03125 3.671875 -16.03125 Z M 3.671875 -16.03125 "/></g></g></g><g fill="#ffd452" fill-opacity="1"><g transform="translate(115.020204, 26.644737)"><g><path d="M 7.640625 0.25 C 6.378906 0.25 5.265625 -0.0195312 4.296875 -0.5625 C 3.328125 -1.101562 2.566406 -1.859375 2.015625 -2.828125 C 1.472656 -3.804688 1.203125 -4.941406 1.203125 -6.234375 C 1.203125 -7.640625 1.476562 -8.832031 2.03125 -9.8125 C 2.582031 -10.800781 3.296875 -11.5625 4.171875 -12.09375 C 5.054688 -12.632812 5.992188 -12.90625 6.984375 -12.90625 C 7.703125 -12.90625 8.398438 -12.773438 9.078125 -12.515625 C 9.765625 -12.265625 10.375 -11.890625 10.90625 -11.390625 C 11.445312 -10.890625 11.878906 -10.273438 12.203125 -9.546875 C 12.523438 -8.828125 12.703125 -7.988281 12.734375 -7.03125 C 12.710938 -6.832031 12.628906 -6.660156 12.484375 -6.515625 C 12.335938 -6.378906 12.164062 -6.3125 11.96875 -6.3125 L 2.078125 -6.3125 L 1.78125 -7.640625 L 11.5 -7.640625 L 11.171875 -7.359375 L 11.171875 -7.84375 C 11.109375 -8.613281 10.863281 -9.269531 10.4375 -9.8125 C 10.007812 -10.363281 9.488281 -10.773438 8.875 -11.046875 C 8.269531 -11.328125 7.640625 -11.46875 6.984375 -11.46875 C 6.484375 -11.46875 5.972656 -11.367188 5.453125 -11.171875 C 4.941406 -10.972656 4.472656 -10.664062 4.046875 -10.25 C 3.628906 -9.832031 3.289062 -9.296875 3.03125 -8.640625 C 2.769531 -7.992188 2.640625 -7.226562 2.640625 -6.34375 C 2.640625 -5.375 2.835938 -4.492188 3.234375 -3.703125 C 3.628906 -2.910156 4.195312 -2.285156 4.9375 -1.828125 C 5.6875 -1.367188 6.582031 -1.140625 7.625 -1.140625 C 8.195312 -1.140625 8.710938 -1.21875 9.171875 -1.375 C 9.640625 -1.539062 10.046875 -1.757812 10.390625 -2.03125 C 10.734375 -2.300781 11.019531 -2.585938 11.25 -2.890625 C 11.425781 -3.035156 11.609375 -3.109375 11.796875 -3.109375 C 11.960938 -3.109375 12.101562 -3.039062 12.21875 -2.90625 C 12.34375 -2.78125 12.40625 -2.632812 12.40625 -2.46875 C 12.40625 -2.269531 12.320312 -2.097656 12.15625 -1.953125 C 11.664062 -1.359375 11.023438 -0.84375 10.234375 -0.40625 C 9.441406 0.03125 8.578125 0.25 7.640625 0.25 Z M 7.640625 0.25 "/></g></g></g><g fill="#ffd452" fill-opacity="1"><g transform="translate(128.957143, 26.644737)"><g><path d="M 1.609375 -12.734375 C 1.847656 -12.734375 2.046875 -12.625 2.203125 -12.40625 L 10.921875 -1.109375 C 11.046875 -0.972656 11.109375 -0.828125 11.109375 -0.671875 C 11.109375 -0.472656 11.03125 -0.296875 10.875 -0.140625 C 10.726562 0.00390625 10.554688 0.078125 10.359375 0.078125 C 10.128906 0.078125 9.925781 -0.03125 9.75 -0.25 L 0.984375 -11.546875 C 0.890625 -11.660156 0.84375 -11.804688 0.84375 -11.984375 C 0.84375 -12.203125 0.921875 -12.378906 1.078125 -12.515625 C 1.234375 -12.660156 1.410156 -12.734375 1.609375 -12.734375 Z M 1.609375 0.078125 C 1.441406 0.078125 1.28125 0.0195312 1.125 -0.09375 C 0.96875 -0.207031 0.890625 -0.375 0.890625 -0.59375 C 0.890625 -0.769531 0.945312 -0.925781 1.0625 -1.0625 L 5.234375 -6.421875 L 6.046875 -5.234375 L 2.203125 -0.21875 C 2.046875 -0.0195312 1.847656 0.078125 1.609375 0.078125 Z M 10.359375 -12.734375 C 10.578125 -12.734375 10.742188 -12.671875 10.859375 -12.546875 C 10.984375 -12.421875 11.046875 -12.269531 11.046875 -12.09375 C 11.046875 -12.007812 11.035156 -11.925781 11.015625 -11.84375 C 10.992188 -11.757812 10.945312 -11.6875 10.875 -11.625 L 6.703125 -6.140625 L 5.953125 -7.328125 L 9.75 -12.40625 C 9.925781 -12.625 10.128906 -12.734375 10.359375 -12.734375 Z M 10.359375 -12.734375 "/></g></g></g></svg>