<svg xmlns="http://www.w3.org/2000/svg" xmlns:xlink="http://www.w3.org/1999/xlink" width="250" zoomAndPan="magnify" viewBox="0 0 187.5 37.5" height="50" preserveAspectRatio="xMidYMid meet" version="1.0"><defs><g/></defs><g fill="#83d1eb" fill-opacity="1"><g transform="translate(61.220829, 26.644737)"><g><path d="M 9.59375 -17.265625 C 10.976562 -17.265625 12.0625 -16.890625 12.84375 -16.140625 C 13.625 -15.398438 14.015625 -14.363281 14.015625 -13.03125 C 14.015625 -12.332031 13.863281 -11.671875 13.5625 -11.046875 C 13.269531 -10.421875 12.832031 -9.914062 12.25 -9.53125 C 11.675781 -9.144531 10.960938 -8.925781 10.109375 -8.875 L 10.015625 -9.375 C 10.617188 -9.375 11.210938 -9.285156 11.796875 -9.109375 C 12.390625 -8.941406 12.914062 -8.664062 13.375 -8.28125 C 13.832031 -7.90625 14.203125 -7.429688 14.484375 -6.859375 C 14.765625 -6.296875 14.90625 -5.613281 14.90625 -4.8125 C 14.90625 -3.957031 14.757812 -3.21875 14.46875 -2.59375 C 14.175781 -1.976562 13.785156 -1.484375 13.296875 -1.109375 C 12.816406 -0.734375 12.265625 -0.453125 11.640625 -0.265625 C 11.015625 -0.0859375 10.367188 0 9.703125 0 L 3.0625 0 C 2.863281 0 2.6875 -0.0703125 2.53125 -0.21875 C 2.382812 -0.363281 2.3125 -0.535156 2.3125 -0.734375 L 2.3125 -16.53125 C 2.3125 -16.726562 2.382812 -16.898438 2.53125 -17.046875 C 2.6875 -17.191406 2.863281 -17.265625 3.0625 -17.265625 Z M 9.40625 -15.8125 L 3.609375 -15.8125 L 3.890625 -16.265625 L 3.890625 -9.28125 L 3.625 -9.640625 L 9.40625 -9.640625 C 10.257812 -9.660156 10.976562 -9.941406 11.5625 -10.484375 C 12.144531 -11.023438 12.4375 -11.832031 12.4375 -12.90625 C 12.4375 -13.8125 12.171875 -14.519531 11.640625 -15.03125 C 11.117188 -15.550781 10.375 -15.8125 9.40625 -15.8125 Z M 9.578125 -8.171875 L 3.78125 -8.171875 L 3.890625 -8.3125 L 3.890625 -1.234375 L 3.75 -1.453125 L 9.625 -1.453125 C 10.675781 -1.453125 11.554688 -1.71875 12.265625 -2.25 C 12.972656 -2.789062 13.328125 -3.644531 13.328125 -4.8125 C 13.328125 -5.632812 13.148438 -6.289062 12.796875 -6.78125 C 12.453125 -7.28125 11.992188 -7.632812 11.421875 -7.84375 C 10.847656 -8.0625 10.234375 -8.171875 9.578125 -8.171875 Z M 9.578125 -8.171875 "/></g></g></g><g fill="#83d1eb" fill-opacity="1"><g transform="translate(77.279141, 26.644737)"><g><path d="M 8.90625 -17.265625 C 9.820312 -17.265625 10.632812 -17.054688 11.34375 -16.640625 C 12.050781 -16.222656 12.609375 -15.644531 13.015625 -14.90625 C 13.429688 -14.164062 13.640625 -13.316406 13.640625 -12.359375 C 13.640625 -11.398438 13.429688 -10.539062 13.015625 -9.78125 C 12.609375 -9.019531 12.050781 -8.414062 11.34375 -7.96875 C 10.632812 -7.519531 9.820312 -7.296875 8.90625 -7.296875 L 3.671875 -7.296875 L 3.796875 -7.546875 L 3.796875 -0.734375 C 3.796875 -0.535156 3.722656 -0.363281 3.578125 -0.21875 C 3.429688 -0.0703125 3.257812 0 3.0625 0 C 2.832031 0 2.648438 -0.0703125 2.515625 -0.21875 C 2.378906 -0.363281 2.3125 -0.535156 2.3125 -0.734375 L 2.3125 -16.53125 C 2.3125 -16.726562 2.382812 -16.898438 2.53125 -17.046875 C 2.6875 -17.191406 2.863281 -17.265625 3.0625 -17.265625 Z M 8.90625 -8.734375 C 9.550781 -8.734375 10.109375 -8.894531 10.578125 -9.21875 C 11.054688 -9.539062 11.429688 -9.972656 11.703125 -10.515625 C 11.972656 -11.066406 12.109375 -11.679688 12.109375 -12.359375 C 12.109375 -13.035156 11.972656 -13.628906 11.703125 -14.140625 C 11.429688 -14.660156 11.054688 -15.066406 10.578125 -15.359375 C 10.109375 -15.660156 9.550781 -15.8125 8.90625 -15.8125 L 3.671875 -15.8125 L 3.796875 -16.03125 L 3.796875 -8.578125 L 3.65625 -8.734375 Z M 8.90625 -8.734375 "/></g></g></g><g fill="#83d1eb" fill-opacity="1"><g transform="translate(91.980762, 26.644737)"><g><path d="M 9.59375 -17.265625 C 10.976562 -17.265625 12.0625 -16.890625 12.84375 -16.140625 C 13.625 -15.398438 14.015625 -14.363281 14.015625 -13.03125 C 14.015625 -12.332031 13.863281 -11.671875 13.5625 -11.046875 C 13.269531 -10.421875 12.832031 -9.914062 12.25 -9.53125 C 11.675781 -9.144531 10.960938 -8.925781 10.109375 -8.875 L 10.015625 -9.375 C 10.617188 -9.375 11.210938 -9.285156 11.796875 -9.109375 C 12.390625 -8.941406 12.914062 -8.664062 13.375 -8.28125 C 13.832031 -7.90625 14.203125 -7.429688 14.484375 -6.859375 C 14.765625 -6.296875 14.90625 -5.613281 14.90625 -4.8125 C 14.90625 -3.957031 14.757812 -3.21875 14.46875 -2.59375 C 14.175781 -1.976562 13.785156 -1.484375 13.296875 -1.109375 C 12.816406 -0.734375 12.265625 -0.453125 11.640625 -0.265625 C 11.015625 -0.0859375 10.367188 0 9.703125 0 L 3.0625 0 C 2.863281 0 2.6875 -0.0703125 2.53125 -0.21875 C 2.382812 -0.363281 2.3125 -0.535156 2.3125 -0.734375 L 2.3125 -16.53125 C 2.3125 -16.726562 2.382812 -16.898438 2.53125 -17.046875 C 2.6875 -17.191406 2.863281 -17.265625 3.0625 -17.265625 Z M 9.40625 -15.8125 L 3.609375 -15.8125 L 3.890625 -16.265625 L 3.890625 -9.28125 L 3.625 -9.640625 L 9.40625 -9.640625 C 10.257812 -9.660156 10.976562 -9.941406 11.5625 -10.484375 C 12.144531 -11.023438 12.4375 -11.832031 12.4375 -12.90625 C 12.4375 -13.8125 12.171875 -14.519531 11.640625 -15.03125 C 11.117188 -15.550781 10.375 -15.8125 9.40625 -15.8125 Z M 9.578125 -8.171875 L 3.78125 -8.171875 L 3.890625 -8.3125 L 3.890625 -1.234375 L 3.75 -1.453125 L 9.625 -1.453125 C 10.675781 -1.453125 11.554688 -1.71875 12.265625 -2.25 C 12.972656 -2.789062 13.328125 -3.644531 13.328125 -4.8125 C 13.328125 -5.632812 13.148438 -6.289062 12.796875 -6.78125 C 12.453125 -7.28125 11.992188 -7.632812 11.421875 -7.84375 C 10.847656 -8.0625 10.234375 -8.171875 9.578125 -8.171875 Z M 9.578125 -8.171875 "/></g></g></g><g fill="#83d1eb" fill-opacity="1"><g transform="translate(108.039074, 26.644737)"><g><path d="M 9.34375 -17.265625 C 10.5625 -17.265625 11.628906 -17.035156 12.546875 -16.578125 C 13.460938 -16.117188 14.210938 -15.484375 14.796875 -14.671875 C 15.390625 -13.859375 15.832031 -12.929688 16.125 -11.890625 C 16.414062 -10.859375 16.5625 -9.773438 16.5625 -8.640625 C 16.5625 -7.054688 16.300781 -5.609375 15.78125 -4.296875 C 15.257812 -2.992188 14.46875 -1.953125 13.40625 -1.171875 C 12.34375 -0.390625 10.988281 0 9.34375 0 L 3.0625 0 C 2.863281 0 2.6875 -0.0703125 2.53125 -0.21875 C 2.382812 -0.363281 2.3125 -0.535156 2.3125 -0.734375 L 2.3125 -16.53125 C 2.3125 -16.726562 2.382812 -16.898438 2.53125 -17.046875 C 2.6875 -17.191406 2.863281 -17.265625 3.0625 -17.265625 Z M 9.109375 -1.453125 C 10.503906 -1.453125 11.628906 -1.769531 12.484375 -2.40625 C 13.335938 -3.050781 13.960938 -3.921875 14.359375 -5.015625 C 14.765625 -6.109375 14.96875 -7.316406 14.96875 -8.640625 C 14.96875 -9.585938 14.859375 -10.492188 14.640625 -11.359375 C 14.421875 -12.222656 14.078125 -12.988281 13.609375 -13.65625 C 13.140625 -14.320312 12.53125 -14.847656 11.78125 -15.234375 C 11.03125 -15.617188 10.140625 -15.8125 9.109375 -15.8125 L 3.703125 -15.8125 L 3.875 -16.03125 L 3.875 -1.203125 L 3.71875 -1.453125 Z M 9.109375 -1.453125 "/></g></g></g></svg>