<svg xmlns="http://www.w3.org/2000/svg" xmlns:xlink="http://www.w3.org/1999/xlink" width="250" zoomAndPan="magnify" viewBox="0 0 187.5 37.5" height="50" preserveAspectRatio="xMidYMid meet" version="1.0"><defs><g/></defs><g fill="#000000" fill-opacity="1"><g transform="translate(40.231161, 26.644737)"><g><path d="M 3.0625 -17.265625 C 3.175781 -17.265625 3.296875 -17.238281 3.421875 -17.1875 C 3.546875 -17.144531 3.644531 -17.066406 3.71875 -16.953125 L 10.53125 -6.734375 L 9.875 -6.765625 L 16.703125 -16.953125 C 16.878906 -17.191406 17.101562 -17.296875 17.375 -17.265625 C 17.570312 -17.265625 17.738281 -17.191406 17.875 -17.046875 C 18.007812 -16.910156 18.078125 -16.738281 18.078125 -16.53125 L 18.078125 -0.734375 C 18.078125 -0.535156 18.003906 -0.363281 17.859375 -0.21875 C 17.710938 -0.0703125 17.53125 0 17.3125 0 C 17.082031 0 16.894531 -0.0703125 16.75 -0.21875 C 16.601562 -0.363281 16.53125 -0.535156 16.53125 -0.734375 L 16.53125 -15.03125 L 16.96875 -14.96875 L 10.734375 -5.53125 C 10.679688 -5.425781 10.601562 -5.34375 10.5 -5.28125 C 10.40625 -5.226562 10.296875 -5.210938 10.171875 -5.234375 C 10.046875 -5.210938 9.929688 -5.226562 9.828125 -5.28125 C 9.722656 -5.34375 9.640625 -5.425781 9.578125 -5.53125 L 3.3125 -15.078125 L 3.78125 -15.390625 L 3.78125 -0.734375 C 3.78125 -0.535156 3.707031 -0.363281 3.5625 -0.21875 C 3.425781 -0.0703125 3.25 0 3.03125 0 C 2.820312 0 2.648438 -0.0703125 2.515625 -0.21875 C 2.378906 -0.363281 2.3125 -0.535156 2.3125 -0.734375 L 2.3125 -16.53125 C 2.3125 -16.726562 2.378906 -16.898438 2.515625 -17.046875 C 2.660156 -17.191406 2.84375 -17.265625 3.0625 -17.265625 Z M 3.0625 -17.265625 "/></g></g></g><g fill="#000000" fill-opacity="1"><g transform="translate(60.63089, 26.644737)"><g><path d="M 12.28125 -12.609375 C 12.5 -12.609375 12.675781 -12.53125 12.8125 -12.375 C 12.957031 -12.226562 13.03125 -12.050781 13.03125 -11.84375 L 13.03125 -0.734375 C 13.03125 -0.535156 12.953125 -0.363281 12.796875 -0.21875 C 12.648438 -0.0703125 12.476562 0 12.28125 0 C 12.070312 0 11.894531 -0.0703125 11.75 -0.21875 C 11.613281 -0.363281 11.546875 -0.535156 11.546875 -0.734375 L 11.546875 -3.671875 L 11.96875 -3.875 C 11.96875 -3.414062 11.835938 -2.945312 11.578125 -2.46875 C 11.328125 -1.988281 10.976562 -1.539062 10.53125 -1.125 C 10.09375 -0.71875 9.570312 -0.382812 8.96875 -0.125 C 8.363281 0.125 7.71875 0.25 7.03125 0.25 C 5.914062 0.25 4.914062 -0.0351562 4.03125 -0.609375 C 3.15625 -1.191406 2.460938 -1.984375 1.953125 -2.984375 C 1.453125 -3.984375 1.203125 -5.109375 1.203125 -6.359375 C 1.203125 -7.648438 1.457031 -8.78125 1.96875 -9.75 C 2.476562 -10.726562 3.171875 -11.5 4.046875 -12.0625 C 4.921875 -12.625 5.90625 -12.90625 7 -12.90625 C 7.707031 -12.90625 8.367188 -12.78125 8.984375 -12.53125 C 9.609375 -12.28125 10.148438 -11.941406 10.609375 -11.515625 C 11.066406 -11.085938 11.421875 -10.597656 11.671875 -10.046875 C 11.929688 -9.503906 12.0625 -8.9375 12.0625 -8.34375 L 11.546875 -8.703125 L 11.546875 -11.84375 C 11.546875 -12.050781 11.613281 -12.226562 11.75 -12.375 C 11.894531 -12.53125 12.070312 -12.609375 12.28125 -12.609375 Z M 7.15625 -1.140625 C 8.03125 -1.140625 8.800781 -1.363281 9.46875 -1.8125 C 10.144531 -2.257812 10.675781 -2.882812 11.0625 -3.6875 C 11.445312 -4.488281 11.640625 -5.378906 11.640625 -6.359375 C 11.640625 -7.335938 11.445312 -8.210938 11.0625 -8.984375 C 10.675781 -9.753906 10.144531 -10.367188 9.46875 -10.828125 C 8.800781 -11.285156 8.03125 -11.515625 7.15625 -11.515625 C 6.300781 -11.515625 5.53125 -11.289062 4.84375 -10.84375 C 4.164062 -10.40625 3.632812 -9.800781 3.25 -9.03125 C 2.863281 -8.257812 2.671875 -7.367188 2.671875 -6.359375 C 2.671875 -5.378906 2.863281 -4.488281 3.25 -3.6875 C 3.632812 -2.882812 4.160156 -2.257812 4.828125 -1.8125 C 5.503906 -1.363281 6.28125 -1.140625 7.15625 -1.140625 Z M 7.15625 -1.140625 "/></g></g></g><g fill="#000000" fill-opacity="1"><g transform="translate(75.579185, 26.644737)"><g><path d="M 3.75 1.140625 C 3.75 1.921875 3.5625 2.585938 3.1875 3.140625 C 2.820312 3.691406 2.367188 4.113281 1.828125 4.40625 C 1.285156 4.707031 0.742188 4.859375 0.203125 4.859375 C -0.015625 4.859375 -0.1875 4.789062 -0.3125 4.65625 C -0.4375 4.53125 -0.5 4.375 -0.5 4.1875 L -0.5 4.09375 C -0.5 3.894531 -0.429688 3.738281 -0.296875 3.625 C -0.160156 3.507812 -0.015625 3.4375 0.140625 3.40625 C 0.523438 3.320312 0.875 3.179688 1.1875 2.984375 C 1.507812 2.785156 1.769531 2.515625 1.96875 2.171875 C 2.164062 1.828125 2.265625 1.40625 2.265625 0.90625 L 2.265625 -11.8125 C 2.265625 -12.007812 2.332031 -12.179688 2.46875 -12.328125 C 2.613281 -12.484375 2.796875 -12.5625 3.015625 -12.5625 C 3.222656 -12.5625 3.394531 -12.484375 3.53125 -12.328125 C 3.675781 -12.179688 3.75 -12.007812 3.75 -11.8125 Z M 3 -14.5 C 2.65625 -14.5 2.394531 -14.578125 2.21875 -14.734375 C 2.050781 -14.890625 1.96875 -15.117188 1.96875 -15.421875 L 1.96875 -15.671875 C 1.96875 -15.960938 2.0625 -16.1875 2.25 -16.34375 C 2.4375 -16.5 2.695312 -16.578125 3.03125 -16.578125 C 3.34375 -16.578125 3.582031 -16.5 3.75 -16.34375 C 3.925781 -16.1875 4.015625 -15.960938 4.015625 -15.671875 L 4.015625 -15.421875 C 4.015625 -15.117188 3.925781 -14.890625 3.75 -14.734375 C 3.582031 -14.578125 3.332031 -14.5 3 -14.5 Z M 3 -14.5 "/></g></g></g><g fill="#000000" fill-opacity="1"><g transform="translate(82.239319, 26.644737)"><g><path d="M 12.28125 -12.609375 C 12.5 -12.609375 12.675781 -12.53125 12.8125 -12.375 C 12.957031 -12.226562 13.03125 -12.050781 13.03125 -11.84375 L 13.03125 -0.734375 C 13.03125 -0.535156 12.953125 -0.363281 12.796875 -0.21875 C 12.648438 -0.0703125 12.476562 0 12.28125 0 C 12.070312 0 11.894531 -0.0703125 11.75 -0.21875 C 11.613281 -0.363281 11.546875 -0.535156 11.546875 -0.734375 L 11.546875 -3.671875 L 11.96875 -3.875 C 11.96875 -3.414062 11.835938 -2.945312 11.578125 -2.46875 C 11.328125 -1.988281 10.976562 -1.539062 10.53125 -1.125 C 10.09375 -0.71875 9.570312 -0.382812 8.96875 -0.125 C 8.363281 0.125 7.71875 0.25 7.03125 0.25 C 5.914062 0.25 4.914062 -0.0351562 4.03125 -0.609375 C 3.15625 -1.191406 2.460938 -1.984375 1.953125 -2.984375 C 1.453125 -3.984375 1.203125 -5.109375 1.203125 -6.359375 C 1.203125 -7.648438 1.457031 -8.78125 1.96875 -9.75 C 2.476562 -10.726562 3.171875 -11.5 4.046875 -12.0625 C 4.921875 -12.625 5.90625 -12.90625 7 -12.90625 C 7.707031 -12.90625 8.367188 -12.78125 8.984375 -12.53125 C 9.609375 -12.28125 10.148438 -11.941406 10.609375 -11.515625 C 11.066406 -11.085938 11.421875 -10.597656 11.671875 -10.046875 C 11.929688 -9.503906 12.0625 -8.9375 12.0625 -8.34375 L 11.546875 -8.703125 L 11.546875 -11.84375 C 11.546875 -12.050781 11.613281 -12.226562 11.75 -12.375 C 11.894531 -12.53125 12.070312 -12.609375 12.28125 -12.609375 Z M 7.15625 -1.140625 C 8.03125 -1.140625 8.800781 -1.363281 9.46875 -1.8125 C 10.144531 -2.257812 10.675781 -2.882812 11.0625 -3.6875 C 11.445312 -4.488281 11.640625 -5.378906 11.640625 -6.359375 C 11.640625 -7.335938 11.445312 -8.210938 11.0625 -8.984375 C 10.675781 -9.753906 10.144531 -10.367188 9.46875 -10.828125 C 8.800781 -11.285156 8.03125 -11.515625 7.15625 -11.515625 C 6.300781 -11.515625 5.53125 -11.289062 4.84375 -10.84375 C 4.164062 -10.40625 3.632812 -9.800781 3.25 -9.03125 C 2.863281 -8.257812 2.671875 -7.367188 2.671875 -6.359375 C 2.671875 -5.378906 2.863281 -4.488281 3.25 -3.6875 C 3.632812 -2.882812 4.160156 -2.257812 4.828125 -1.8125 C 5.503906 -1.363281 6.28125 -1.140625 7.15625 -1.140625 Z M 7.15625 -1.140625 "/></g></g></g><g fill="#000000" fill-opacity="1"><g transform="translate(97.187613, 26.644737)"><g><path d="M 3.578125 -0.734375 C 3.578125 -0.535156 3.503906 -0.363281 3.359375 -0.21875 C 3.210938 -0.0703125 3.039062 0 2.84375 0 C 2.625 0 2.441406 -0.0703125 2.296875 -0.21875 C 2.160156 -0.363281 2.09375 -0.535156 2.09375 -0.734375 L 2.09375 -17.515625 C 2.09375 -17.710938 2.164062 -17.882812 2.3125 -18.03125 C 2.46875 -18.175781 2.644531 -18.25 2.84375 -18.25 C 3.050781 -18.25 3.222656 -18.175781 3.359375 -18.03125 C 3.503906 -17.882812 3.578125 -17.710938 3.578125 -17.515625 Z M 3.578125 -0.734375 "/></g></g></g><g fill="#000000" fill-opacity="1"><g transform="translate(102.861055, 26.644737)"><g><path d="M 12.28125 -12.609375 C 12.5 -12.609375 12.675781 -12.53125 12.8125 -12.375 C 12.957031 -12.226562 13.03125 -12.050781 13.03125 -11.84375 L 13.03125 -0.734375 C 13.03125 -0.535156 12.953125 -0.363281 12.796875 -0.21875 C 12.648438 -0.0703125 12.476562 0 12.28125 0 C 12.070312 0 11.894531 -0.0703125 11.75 -0.21875 C 11.613281 -0.363281 11.546875 -0.535156 11.546875 -0.734375 L 11.546875 -3.671875 L 11.96875 -3.875 C 11.96875 -3.414062 11.835938 -2.945312 11.578125 -2.46875 C 11.328125 -1.988281 10.976562 -1.539062 10.53125 -1.125 C 10.09375 -0.71875 9.570312 -0.382812 8.96875 -0.125 C 8.363281 0.125 7.71875 0.25 7.03125 0.25 C 5.914062 0.25 4.914062 -0.0351562 4.03125 -0.609375 C 3.15625 -1.191406 2.460938 -1.984375 1.953125 -2.984375 C 1.453125 -3.984375 1.203125 -5.109375 1.203125 -6.359375 C 1.203125 -7.648438 1.457031 -8.78125 1.96875 -9.75 C 2.476562 -10.726562 3.171875 -11.5 4.046875 -12.0625 C 4.921875 -12.625 5.90625 -12.90625 7 -12.90625 C 7.707031 -12.90625 8.367188 -12.78125 8.984375 -12.53125 C 9.609375 -12.28125 10.148438 -11.941406 10.609375 -11.515625 C 11.066406 -11.085938 11.421875 -10.597656 11.671875 -10.046875 C 11.929688 -9.503906 12.0625 -8.9375 12.0625 -8.34375 L 11.546875 -8.703125 L 11.546875 -11.84375 C 11.546875 -12.050781 11.613281 -12.226562 11.75 -12.375 C 11.894531 -12.53125 12.070312 -12.609375 12.28125 -12.609375 Z M 7.15625 -1.140625 C 8.03125 -1.140625 8.800781 -1.363281 9.46875 -1.8125 C 10.144531 -2.257812 10.675781 -2.882812 11.0625 -3.6875 C 11.445312 -4.488281 11.640625 -5.378906 11.640625 -6.359375 C 11.640625 -7.335938 11.445312 -8.210938 11.0625 -8.984375 C 10.675781 -9.753906 10.144531 -10.367188 9.46875 -10.828125 C 8.800781 -11.285156 8.03125 -11.515625 7.15625 -11.515625 C 6.300781 -11.515625 5.53125 -11.289062 4.84375 -10.84375 C 4.164062 -10.40625 3.632812 -9.800781 3.25 -9.03125 C 2.863281 -8.257812 2.671875 -7.367188 2.671875 -6.359375 C 2.671875 -5.378906 2.863281 -4.488281 3.25 -3.6875 C 3.632812 -2.882812 4.160156 -2.257812 4.828125 -1.8125 C 5.503906 -1.363281 6.28125 -1.140625 7.15625 -1.140625 Z M 7.15625 -1.140625 "/></g></g></g><g fill="#000000" fill-opacity="1"><g transform="translate(117.80935, 26.644737)"><g><path d="M 11.34375 -12.828125 C 11.5625 -12.828125 11.738281 -12.753906 11.875 -12.609375 C 12.019531 -12.460938 12.09375 -12.289062 12.09375 -12.09375 L 12.09375 -1.203125 C 12.09375 0.128906 11.828125 1.25 11.296875 2.15625 C 10.773438 3.070312 10.066406 3.765625 9.171875 4.234375 C 8.285156 4.703125 7.273438 4.9375 6.140625 4.9375 C 5.429688 4.9375 4.773438 4.859375 4.171875 4.703125 C 3.578125 4.546875 3.09375 4.34375 2.71875 4.09375 C 2.519531 3.976562 2.367188 3.835938 2.265625 3.671875 C 2.171875 3.503906 2.164062 3.332031 2.25 3.15625 C 2.332031 2.925781 2.457031 2.773438 2.625 2.703125 C 2.800781 2.628906 2.976562 2.632812 3.15625 2.71875 C 3.4375 2.863281 3.835938 3.039062 4.359375 3.25 C 4.890625 3.46875 5.492188 3.578125 6.171875 3.578125 C 7.078125 3.578125 7.859375 3.382812 8.515625 3 C 9.179688 2.625 9.695312 2.078125 10.0625 1.359375 C 10.425781 0.648438 10.609375 -0.195312 10.609375 -1.1875 L 10.609375 -2.953125 L 10.78125 -2.375 C 10.53125 -1.863281 10.175781 -1.410156 9.71875 -1.015625 C 9.269531 -0.617188 8.753906 -0.304688 8.171875 -0.078125 C 7.585938 0.140625 6.96875 0.25 6.3125 0.25 C 5.320312 0.25 4.503906 0.046875 3.859375 -0.359375 C 3.210938 -0.765625 2.734375 -1.316406 2.421875 -2.015625 C 2.109375 -2.722656 1.953125 -3.554688 1.953125 -4.515625 L 1.953125 -12.09375 C 1.953125 -12.289062 2.015625 -12.460938 2.140625 -12.609375 C 2.273438 -12.753906 2.457031 -12.828125 2.6875 -12.828125 C 2.90625 -12.828125 3.082031 -12.753906 3.21875 -12.609375 C 3.351562 -12.460938 3.421875 -12.289062 3.421875 -12.09375 L 3.421875 -4.734375 C 3.421875 -3.585938 3.671875 -2.703125 4.171875 -2.078125 C 4.679688 -1.453125 5.503906 -1.140625 6.640625 -1.140625 C 7.347656 -1.140625 7.992188 -1.304688 8.578125 -1.640625 C 9.171875 -1.972656 9.65625 -2.414062 10.03125 -2.96875 C 10.414062 -3.519531 10.609375 -4.109375 10.609375 -4.734375 L 10.609375 -12.09375 C 10.609375 -12.289062 10.675781 -12.460938 10.8125 -12.609375 C 10.957031 -12.753906 11.132812 -12.828125 11.34375 -12.828125 Z M 11.34375 -12.828125 "/></g></g></g><g fill="#000000" fill-opacity="1"><g transform="translate(131.820295, 26.644737)"><g><path d="M 12.28125 -12.609375 C 12.5 -12.609375 12.675781 -12.53125 12.8125 -12.375 C 12.957031 -12.226562 13.03125 -12.050781 13.03125 -11.84375 L 13.03125 -0.734375 C 13.03125 -0.535156 12.953125 -0.363281 12.796875 -0.21875 C 12.648438 -0.0703125 12.476562 0 12.28125 0 C 12.070312 0 11.894531 -0.0703125 11.75 -0.21875 C 11.613281 -0.363281 11.546875 -0.535156 11.546875 -0.734375 L 11.546875 -3.671875 L 11.96875 -3.875 C 11.96875 -3.414062 11.835938 -2.945312 11.578125 -2.46875 C 11.328125 -1.988281 10.976562 -1.539062 10.53125 -1.125 C 10.09375 -0.71875 9.570312 -0.382812 8.96875 -0.125 C 8.363281 0.125 7.71875 0.25 7.03125 0.25 C 5.914062 0.25 4.914062 -0.0351562 4.03125 -0.609375 C 3.15625 -1.191406 2.460938 -1.984375 1.953125 -2.984375 C 1.453125 -3.984375 1.203125 -5.109375 1.203125 -6.359375 C 1.203125 -7.648438 1.457031 -8.78125 1.96875 -9.75 C 2.476562 -10.726562 3.171875 -11.5 4.046875 -12.0625 C 4.921875 -12.625 5.90625 -12.90625 7 -12.90625 C 7.707031 -12.90625 8.367188 -12.78125 8.984375 -12.53125 C 9.609375 -12.28125 10.148438 -11.941406 10.609375 -11.515625 C 11.066406 -11.085938 11.421875 -10.597656 11.671875 -10.046875 C 11.929688 -9.503906 12.0625 -8.9375 12.0625 -8.34375 L 11.546875 -8.703125 L 11.546875 -11.84375 C 11.546875 -12.050781 11.613281 -12.226562 11.75 -12.375 C 11.894531 -12.53125 12.070312 -12.609375 12.28125 -12.609375 Z M 7.15625 -1.140625 C 8.03125 -1.140625 8.800781 -1.363281 9.46875 -1.8125 C 10.144531 -2.257812 10.675781 -2.882812 11.0625 -3.6875 C 11.445312 -4.488281 11.640625 -5.378906 11.640625 -6.359375 C 11.640625 -7.335938 11.445312 -8.210938 11.0625 -8.984375 C 10.675781 -9.753906 10.144531 -10.367188 9.46875 -10.828125 C 8.800781 -11.285156 8.03125 -11.515625 7.15625 -11.515625 C 6.300781 -11.515625 5.53125 -11.289062 4.84375 -10.84375 C 4.164062 -10.40625 3.632812 -9.800781 3.25 -9.03125 C 2.863281 -8.257812 2.671875 -7.367188 2.671875 -6.359375 C 2.671875 -5.378906 2.863281 -4.488281 3.25 -3.6875 C 3.632812 -2.882812 4.160156 -2.257812 4.828125 -1.8125 C 5.503906 -1.363281 6.28125 -1.140625 7.15625 -1.140625 Z M 7.15625 -1.140625 "/></g></g></g></svg>