<svg xmlns="http://www.w3.org/2000/svg" xmlns:xlink="http://www.w3.org/1999/xlink" width="250" zoomAndPan="magnify" viewBox="0 0 187.5 37.5" height="50" preserveAspectRatio="xMidYMid meet" version="1.0"><defs><g/></defs><g fill="#40b570" fill-opacity="1"><g transform="translate(70.351045, 26.644737)"><g><path d="M 8.09375 -15.375 L 2.09375 -0.46875 C 2.03125 -0.300781 1.941406 -0.175781 1.828125 -0.09375 C 1.710938 -0.0078125 1.582031 0.03125 1.4375 0.03125 C 1.195312 0.03125 1.019531 -0.03125 0.90625 -0.15625 C 0.789062 -0.28125 0.726562 -0.429688 0.71875 -0.609375 C 0.695312 -0.691406 0.703125 -0.789062 0.734375 -0.90625 L 7.25 -16.84375 C 7.332031 -17.03125 7.4375 -17.160156 7.5625 -17.234375 C 7.6875 -17.304688 7.832031 -17.34375 8 -17.34375 C 8.15625 -17.34375 8.296875 -17.296875 8.421875 -17.203125 C 8.546875 -17.117188 8.640625 -17 8.703125 -16.84375 L 15.203125 -0.984375 C 15.234375 -0.890625 15.25 -0.789062 15.25 -0.6875 C 15.25 -0.457031 15.171875 -0.28125 15.015625 -0.15625 C 14.867188 -0.03125 14.695312 0.03125 14.5 0.03125 C 14.34375 0.03125 14.203125 -0.015625 14.078125 -0.109375 C 13.953125 -0.203125 13.859375 -0.320312 13.796875 -0.46875 L 7.640625 -15.46875 Z M 3.53125 -4.984375 L 4.140625 -6.4375 L 11.796875 -6.4375 L 12.09375 -4.984375 Z M 3.53125 -4.984375 "/></g></g></g><g fill="#40b570" fill-opacity="1"><g transform="translate(86.310685, 26.644737)"><g><path d="M 7.9375 -12.90625 C 9.0625 -12.90625 10.054688 -12.625 10.921875 -12.0625 C 11.785156 -11.5 12.472656 -10.726562 12.984375 -9.75 C 13.492188 -8.78125 13.75 -7.648438 13.75 -6.359375 C 13.75 -5.109375 13.492188 -3.984375 12.984375 -2.984375 C 12.472656 -1.984375 11.78125 -1.191406 10.90625 -0.609375 C 10.03125 -0.0351562 9.050781 0.25 7.96875 0.25 C 7.394531 0.25 6.847656 0.160156 6.328125 -0.015625 C 5.804688 -0.203125 5.332031 -0.445312 4.90625 -0.75 C 4.476562 -1.050781 4.097656 -1.40625 3.765625 -1.8125 C 3.441406 -2.226562 3.179688 -2.675781 2.984375 -3.15625 L 3.421875 -3.484375 L 3.421875 -0.6875 C 3.421875 -0.476562 3.351562 -0.300781 3.21875 -0.15625 C 3.082031 -0.0195312 2.90625 0.046875 2.6875 0.046875 C 2.476562 0.046875 2.300781 -0.0195312 2.15625 -0.15625 C 2.019531 -0.300781 1.953125 -0.476562 1.953125 -0.6875 L 1.953125 -17.5 C 1.953125 -17.707031 2.015625 -17.878906 2.140625 -18.015625 C 2.273438 -18.160156 2.457031 -18.234375 2.6875 -18.234375 C 2.90625 -18.234375 3.082031 -18.160156 3.21875 -18.015625 C 3.351562 -17.878906 3.421875 -17.707031 3.421875 -17.5 L 3.421875 -9.234375 L 3.078125 -9.421875 C 3.242188 -9.929688 3.488281 -10.394531 3.8125 -10.8125 C 4.132812 -11.238281 4.507812 -11.609375 4.9375 -11.921875 C 5.363281 -12.234375 5.832031 -12.472656 6.34375 -12.640625 C 6.851562 -12.816406 7.382812 -12.90625 7.9375 -12.90625 Z M 7.828125 -11.515625 C 6.929688 -11.515625 6.144531 -11.289062 5.46875 -10.84375 C 4.800781 -10.40625 4.273438 -9.800781 3.890625 -9.03125 C 3.503906 -8.257812 3.3125 -7.367188 3.3125 -6.359375 C 3.3125 -5.378906 3.503906 -4.488281 3.890625 -3.6875 C 4.273438 -2.882812 4.800781 -2.257812 5.46875 -1.8125 C 6.144531 -1.363281 6.929688 -1.140625 7.828125 -1.140625 C 8.691406 -1.140625 9.457031 -1.367188 10.125 -1.828125 C 10.789062 -2.285156 11.320312 -2.910156 11.71875 -3.703125 C 12.113281 -4.503906 12.3125 -5.390625 12.3125 -6.359375 C 12.3125 -7.367188 12.113281 -8.257812 11.71875 -9.03125 C 11.320312 -9.800781 10.789062 -10.40625 10.125 -10.84375 C 9.457031 -11.289062 8.691406 -11.515625 7.828125 -11.515625 Z M 7.828125 -11.515625 "/></g></g></g><g fill="#40b570" fill-opacity="1"><g transform="translate(101.25898, 26.644737)"><g><path d="M 7.203125 -12.90625 C 7.941406 -12.90625 8.625 -12.773438 9.25 -12.515625 C 9.875 -12.265625 10.421875 -11.9375 10.890625 -11.53125 C 11.359375 -11.125 11.722656 -10.695312 11.984375 -10.25 C 12.253906 -9.800781 12.390625 -9.367188 12.390625 -8.953125 L 11.96875 -9.546875 L 11.96875 -11.84375 C 11.96875 -12.050781 12.035156 -12.226562 12.171875 -12.375 C 12.316406 -12.53125 12.492188 -12.609375 12.703125 -12.609375 C 12.929688 -12.609375 13.113281 -12.53125 13.25 -12.375 C 13.382812 -12.226562 13.453125 -12.050781 13.453125 -11.84375 L 13.453125 -1.15625 C 13.453125 0.15625 13.175781 1.265625 12.625 2.171875 C 12.082031 3.078125 11.347656 3.765625 10.421875 4.234375 C 9.492188 4.703125 8.4375 4.9375 7.25 4.9375 C 6.675781 4.9375 6.070312 4.859375 5.4375 4.703125 C 4.800781 4.554688 4.257812 4.367188 3.8125 4.140625 C 3.363281 3.910156 3.113281 3.671875 3.0625 3.421875 C 2.925781 3.273438 2.863281 3.128906 2.875 2.984375 C 2.882812 2.847656 2.953125 2.734375 3.078125 2.640625 C 3.242188 2.523438 3.414062 2.507812 3.59375 2.59375 C 3.78125 2.6875 4.054688 2.804688 4.421875 2.953125 C 4.578125 3.003906 4.796875 3.078125 5.078125 3.171875 C 5.359375 3.273438 5.691406 3.363281 6.078125 3.4375 C 6.460938 3.507812 6.867188 3.546875 7.296875 3.546875 C 8.773438 3.546875 9.921875 3.125 10.734375 2.28125 C 11.554688 1.4375 11.96875 0.320312 11.96875 -1.0625 L 11.96875 -3.421875 L 12.234375 -3.359375 C 12.085938 -2.765625 11.84375 -2.242188 11.5 -1.796875 C 11.164062 -1.359375 10.769531 -0.984375 10.3125 -0.671875 C 9.851562 -0.367188 9.351562 -0.140625 8.8125 0.015625 C 8.28125 0.171875 7.753906 0.25 7.234375 0.25 C 6.097656 0.25 5.078125 -0.0351562 4.171875 -0.609375 C 3.265625 -1.191406 2.539062 -1.972656 2 -2.953125 C 1.46875 -3.941406 1.203125 -5.070312 1.203125 -6.34375 C 1.203125 -7.59375 1.46875 -8.710938 2 -9.703125 C 2.539062 -10.703125 3.257812 -11.484375 4.15625 -12.046875 C 5.050781 -12.617188 6.066406 -12.90625 7.203125 -12.90625 Z M 7.375 -11.515625 C 6.46875 -11.515625 5.65625 -11.289062 4.9375 -10.84375 C 4.226562 -10.394531 3.671875 -9.78125 3.265625 -9 C 2.867188 -8.21875 2.671875 -7.332031 2.671875 -6.34375 C 2.671875 -5.351562 2.867188 -4.460938 3.265625 -3.671875 C 3.671875 -2.878906 4.226562 -2.257812 4.9375 -1.8125 C 5.65625 -1.363281 6.46875 -1.140625 7.375 -1.140625 C 8.28125 -1.140625 9.085938 -1.359375 9.796875 -1.796875 C 10.503906 -2.242188 11.0625 -2.859375 11.46875 -3.640625 C 11.882812 -4.421875 12.09375 -5.320312 12.09375 -6.34375 C 12.09375 -7.363281 11.882812 -8.265625 11.46875 -9.046875 C 11.0625 -9.828125 10.503906 -10.429688 9.796875 -10.859375 C 9.085938 -11.296875 8.28125 -11.515625 7.375 -11.515625 Z M 7.375 -11.515625 "/></g></g></g></svg>